# Blender v2.91.0 OBJ File: ''
# www.blender.org
mtllib 3_Cabin_Wood_Door.mtl
o construction.007_Cube.033
v 5.986315 5.290398 -2.031614
v 6.019997 5.288616 -1.998649
v 6.297042 5.306668 -2.279032
v 6.285620 5.295063 -2.367086
v 5.924638 2.190387 -2.019351
v 6.227037 2.189640 -2.355310
v 5.720637 5.299441 -1.794164
v 5.743304 5.310575 -1.759063
v 5.990496 5.304393 -1.998296
v 5.988089 5.306120 -2.101507
v 5.958912 2.193868 -1.994098
v 6.235117 2.195159 -2.261786
v 5.545399 5.263865 -1.553281
v 5.578410 5.262103 -1.510997
v 5.738834 5.254134 -1.669749
v 5.723467 5.253498 -1.761468
v 5.536667 3.754341 -1.600610
v 5.569375 3.754624 -1.556183
v 5.518180 2.174786 -1.588043
v 5.563341 5.203948 -1.662207
v 5.588745 5.202569 -1.576539
v 5.547029 2.183091 -1.509554
v 5.319425 2.196239 -1.378348
v 5.359110 5.273712 -1.352253
v 5.341191 5.261288 -1.400091
v 5.291172 2.194198 -1.422457
v 5.446950 3.777080 -1.590833
v 5.517260 2.192888 -1.648836
v 5.549663 2.194622 -1.602254
v 5.479657 3.777364 -1.546393
v 5.720672 4.752918 -1.781608
v 5.927729 4.692811 -1.966766
v 4.909652 5.300794 -0.978394
v 4.942381 5.298227 -0.936097
v 5.092985 5.295857 -1.084189
v 5.071940 5.295444 -1.179499
v 5.050992 2.193822 -1.114549
v 5.044167 2.194288 -1.211572
v 5.021024 2.196869 -1.156607
v 5.056144 2.198236 -1.129364
v 5.104862 5.288877 -1.106138
v 5.072463 5.304593 -1.138797
v 5.342753 5.285430 -1.443022
v 5.305582 2.194860 -1.470881
v 5.358876 5.285684 -1.350076
v 4.860826 2.194894 -0.999301
v 5.319138 2.191697 -1.379404
v 4.900758 2.193837 -0.964049
v 5.726870 3.748656 -1.714590
v 5.710929 3.749519 -1.801951
v 5.704895 4.750154 -1.841540
v 5.946802 4.689874 -2.115200
v 5.969733 2.193546 -2.015026
v 5.951128 2.195128 -2.106573
v 5.713651 2.193655 -1.769058
v 5.688541 2.193778 -1.807246
v 6.127203 2.185240 -2.055539
v 6.159852 5.252079 -2.055498
v 6.068723 5.249955 -1.956669
v 6.039660 2.185285 -1.956496
v 5.922912 2.186010 -2.082917
v 5.969117 5.262380 -2.067614
v 6.051340 5.250502 -2.152264
v 6.009592 2.185947 -2.173644
v 5.772182 2.191607 -1.827535
v 5.755660 2.193367 -1.910506
v 5.689158 3.772178 -1.859350
v 5.705103 3.771315 -1.772019
v 4.980393 5.125853 -0.980964
v 5.001050 5.122262 -0.961423
v 6.285746 5.110643 -2.199747
v 6.271193 5.110526 -2.227128
v 6.252435 4.848673 -2.230244
v 4.969996 4.852918 -0.989720
v 6.287689 4.883687 -2.195196
v 5.002556 4.888433 -0.954579
v 4.980392 2.630101 -0.980964
v 5.001050 2.626511 -0.961423
v 6.285745 2.614892 -2.199748
v 6.271192 2.614774 -2.227129
v 6.252434 2.352921 -2.230243
v 4.969995 2.357166 -0.989721
v 6.287689 2.387937 -2.195197
v 5.002555 2.392681 -0.954580
v 5.953439 5.154061 -1.898823
v 5.986893 5.155149 -1.857179
v 6.100008 5.049358 -1.969703
v 6.069201 5.023209 -2.055723
v 5.127117 2.351216 -1.053088
v 5.108884 2.320299 -1.139284
v 4.974571 2.458208 -0.973487
v 5.013928 2.455663 -0.937687
vt 0.607292 0.689738
vt 0.509268 0.735631
vt 0.607292 0.736466
vt 0.710519 -0.366415
vt 0.458229 0.711354
vt 0.710518 0.711354
vt 0.692673 0.416884
vt 0.586933 0.460767
vt 0.697449 0.461677
vt 1.048491 0.711354
vt 0.972238 -0.366415
vt 0.972237 0.711354
vt 0.716537 -0.366415
vt 0.656488 0.711354
vt 0.716537 0.711354
vt 0.494362 0.634322
vt 0.585556 0.691336
vt 0.585556 0.631720
vt 1.048491 2.135760
vt 0.972236 1.061649
vt 0.972236 2.135760
vt 0.240347 0.464308
vt 0.177397 1.542077
vt 0.240346 1.542077
vt 0.511564 1.084482
vt 0.448616 0.006714
vt 0.448615 1.084483
vt 0.594228 0.583311
vt 0.504258 0.528027
vt 0.502809 0.575442
vt 0.161476 0.382311
vt 0.001831 -0.695458
vt 0.001830 0.382311
vt 0.154196 0.464308
vt -0.005451 1.542077
vt 0.154195 1.542077
vt 0.816319 0.988951
vt 0.766698 0.573342
vt 0.766698 0.988949
vt 0.481255 -0.393871
vt 0.679926 0.683899
vt 0.679927 -0.393870
vt 0.678548 1.661703
vt 0.507720 1.892924
vt 0.678548 1.892924
vt 0.494362 0.393707
vt 0.585556 0.450721
vt 0.585556 0.391105
vt 0.719948 -0.404763
vt 0.643692 1.750775
vt 0.719947 1.750775
vt 0.448615 -0.322809
vt 0.511564 -1.400578
vt 0.448616 -1.400578
vt 0.186897 -0.322809
vt -0.021372 -1.400578
vt -0.021372 -0.322809
vt 0.508291 0.632933
vt 0.599869 0.689618
vt 0.599869 0.632942
vt 0.391405 -0.404763
vt 0.643694 -0.404763
vt 0.240346 -0.322809
vt 0.177399 -1.400578
vt 0.177397 -0.322809
vt 1.048491 -0.404763
vt 0.972236 1.750775
vt 1.048491 1.750775
vt 0.972237 -0.404763
vt -0.030872 -0.322809
vt -0.030871 -1.400578
vt 0.719947 1.061654
vt 0.643692 2.135760
vt 0.719947 2.135760
vt 0.730180 1.892924
vt 0.456087 1.662407
vt 0.507720 0.711354
vt 0.456088 0.711354
vt 0.063789 1.665918
vt 0.234617 1.895807
vt 0.234617 1.665290
vt 0.507720 1.662391
vt 0.678548 0.711354
vt 0.730180 1.663035
vt 0.063790 0.714237
vt 0.234618 0.714237
vt 0.456087 1.892924
vt 0.240346 1.542077
vt 0.177399 0.464308
vt 0.177397 1.542077
vt 0.511564 1.084482
vt 0.448616 0.006714
vt 0.448615 1.084483
vt 0.594228 0.525621
vt 0.502809 0.575442
vt 0.594228 0.583311
vt 0.161477 -0.695458
vt 0.001830 0.382311
vt 0.161476 0.382311
vt 0.154196 0.464308
vt -0.005451 1.542077
vt 0.154195 1.542077
vt 0.602525 0.573342
vt 0.552904 0.988945
vt 0.602525 0.988947
vt 0.497007 0.556526
vt 0.661179 0.972130
vt 0.661179 0.556526
vt 0.391404 1.061643
vt 0.643693 1.061657
vt 0.177012 0.416076
vt -0.001824 0.400983
vt 0.210608 0.393574
vt 0.273373 0.468539
vt 0.158474 0.479337
vt 0.155934 0.468539
vt 0.202890 0.470663
vt -0.005621 0.445449
vt 0.202890 0.449879
vt 0.260112 0.388669
vt 0.019428 0.361676
vt 0.270132 0.366732
vt 0.295132 0.191801
vt 0.024458 0.162333
vt 0.304760 0.174347
vt 0.030452 0.104738
vt 0.337779 0.132081
vt -0.020355 0.132081
vt 0.201865 0.504730
vt 0.033696 0.478463
vt 0.201865 0.483620
vt 0.026137 0.192166
vt 0.315559 0.220539
vt -0.020355 0.220540
vt 0.431093 0.313432
vt 0.301507 0.363126
vt 0.299031 0.313432
vt 0.490845 0.747147
vt 0.526543 0.135952
vt 0.490845 0.135952
vt 0.342426 0.747147
vt 0.224319 0.135952
vt 0.224318 0.747147
vt 0.524686 1.289141
vt 0.576620 1.321287
vt 0.576620 1.289146
vt 0.372737 0.747147
vt 0.337040 0.135952
vt 0.337039 0.747147
vt 0.218931 0.747147
vt 0.218932 0.135952
vt 0.251260 1.039185
vt 0.415390 1.055276
vt 0.224895 1.055276
vt 0.850490 0.945572
vt 0.886188 0.334377
vt 0.850491 0.334377
vt 0.702072 0.945572
vt 0.583964 0.334377
vt 0.583964 0.945572
vt 0.884332 1.487566
vt 0.936265 1.519712
vt 0.936265 1.487571
vt 0.732382 0.945572
vt 0.696685 0.334377
vt 0.696685 0.945572
vt 0.578577 0.945572
vt 0.578577 0.334377
vt 0.610906 1.237611
vt 0.775035 1.253701
vt 0.584541 1.253701
vt 0.494362 0.393707
vt 0.585556 0.450721
vt 0.585556 0.391105
vt 0.610750 0.027666
vt 0.560170 0.822284
vt 0.610749 0.822284
vt 0.392829 0.027666
vt 0.560171 0.027666
vt 0.828670 0.027666
vt 0.778091 0.822284
vt 0.828670 0.822284
vt 0.778092 0.027666
vt 0.201865 0.504730
vt 0.033696 0.478463
vt 0.201865 0.483620
vt 0.508291 0.690735
vt 0.458230 -0.366415
vt 0.588041 0.416884
vt 1.048491 -0.366415
vt 0.656489 -0.366415
vt 0.496710 0.691215
vt 1.048491 1.061644
vt 0.177399 0.464308
vt 0.511564 0.006713
vt 0.594228 0.525621
vt 0.161477 -0.695458
vt -0.005450 0.464307
vt 0.816319 0.573342
vt 0.481253 0.683899
vt 0.496710 0.450600
vt 0.511564 -0.322809
vt 0.186897 -1.400578
vt 0.510352 0.687496
vt 0.391403 1.750775
vt 0.240347 -1.400578
vt 0.063789 1.895806
vt 0.730180 0.711354
vt 0.240347 0.464308
vt 0.511564 0.006713
vt 0.504258 0.528027
vt 0.001831 -0.695458
vt -0.005450 0.464307
vt 0.552905 0.573342
vt 0.497006 0.972135
vt 0.391403 2.135760
vt -0.003364 0.417596
vt 0.297285 0.482985
vt -0.020355 0.478097
vt -0.020355 0.388669
vt -0.020355 0.191801
vt 0.334492 0.115177
vt -0.020355 0.505928
vt 0.312940 0.202962
vt 0.437755 0.365692
vt 0.526543 0.747147
vt 0.342427 0.135952
vt 0.525855 1.320083
vt 0.372737 0.135952
vt 0.413904 1.045308
vt 0.886188 0.945572
vt 0.702072 0.334377
vt 0.885501 1.518508
vt 0.732383 0.334377
vt 0.773550 1.243733
vt 0.496710 0.450600
vt 0.392828 0.822284
vt -0.020355 0.505928
vn -0.0196 0.9990 0.0411
vn -0.1332 0.9858 -0.1025
vn -0.1403 0.9838 -0.1115
vn -0.7459 0.0116 -0.6659
vn -0.7435 0.0121 -0.6687
vn -0.7432 0.0121 -0.6690
vn -0.1500 0.9731 -0.1746
vn -0.0144 0.9999 0.0052
vn -0.0056 0.9998 0.0169
vn -0.5951 0.0150 0.8035
vn -0.6981 0.0149 0.7158
vn -0.5941 0.0150 0.8043
vn 0.9919 -0.0204 -0.1252
vn 0.9961 -0.0191 -0.0857
vn 0.9962 -0.0191 -0.0849
vn 0.0495 0.9988 -0.0012
vn 0.0429 0.9990 -0.0123
vn 0.0419 0.9990 -0.0140
vn -0.7888 -0.0137 0.6145
vn -0.8048 -0.0139 0.5934
vn -0.7884 -0.0137 0.6150
vn 0.9581 -0.0196 -0.2856
vn 0.9395 -0.0223 -0.3418
vn 0.9391 -0.0224 -0.3428
vn -0.8434 0.0098 0.5372
vn -0.9365 0.0091 0.3505
vn -0.8422 0.0098 0.5390
vn 0.1893 0.9801 -0.0606
vn 0.0586 0.9689 -0.2402
vn 0.0396 0.9634 -0.2650
vn -0.6029 -0.0090 -0.7978
vn -0.7527 0.0156 -0.6582
vn -0.5899 -0.0110 -0.8074
vn 0.6876 -0.0137 0.7260
vn 0.5138 0.0105 0.8578
vn 0.4999 0.0123 0.8660
vn -0.8043 -0.0565 0.5916
vn -0.8183 -0.0572 0.5720
vn -0.8039 -0.0565 0.5920
vn 0.7104 -0.0105 0.7037
vn 0.6972 -0.0125 0.7168
vn 0.7116 -0.0103 0.7025
vn 0.6698 -0.0207 0.7423
vn 0.6841 -0.0487 0.7278
vn 0.6936 -0.0572 0.7181
vn 0.0385 0.9991 0.0200
vn 0.0242 0.9997 -0.0047
vn 0.0217 0.9997 -0.0091
vn 0.9973 -0.0083 -0.0731
vn 0.9770 -0.0111 -0.2127
vn 0.9764 -0.0111 -0.2156
vn -0.6140 0.0038 0.7893
vn -0.7074 0.0076 0.7068
vn -0.7081 0.0077 0.7061
vn -0.7416 0.0151 -0.6706
vn -0.7465 0.0161 -0.6652
vn -0.7412 0.0150 -0.6712
vn 0.2088 0.9578 0.1974
vn 0.0678 0.9977 0.0026
vn 0.0566 0.9983 -0.0126
vn -0.7579 0.0137 -0.6523
vn -0.7767 0.0163 -0.6296
vn -0.7567 0.0135 -0.6536
vn 0.9890 -0.0113 -0.1474
vn 0.9853 -0.0103 -0.1704
vn 0.9891 -0.0113 -0.1470
vn -0.6633 0.0022 0.7483
vn -0.7894 0.0082 0.6139
vn -0.7906 0.0083 0.6123
vn 0.7012 -0.0158 0.7128
vn 0.7073 -0.0165 0.7067
vn 0.7076 -0.0165 0.7064
vn 0.6890 -0.0158 0.7246
vn 0.6922 -0.0163 0.7215
vn 0.6925 -0.0163 0.7213
vn 0.9838 -0.0034 -0.1790
vn 0.9862 -0.0029 -0.1657
vn 0.9863 -0.0029 -0.1652
vn -0.8514 0.0120 0.5244
vn -0.9652 0.0050 0.2614
vn -0.8418 0.0123 0.5397
vn 0.9954 -0.0193 0.0936
vn 0.9823 0.0015 -0.1871
vn 0.9800 0.0010 -0.1991
vn -0.7476 0.0368 -0.6631
vn -0.7483 0.0729 -0.6593
vn -0.7461 0.0270 -0.6653
vn 0.6657 -0.0123 0.7461
vn 0.6909 -0.0020 0.7229
vn 0.6927 -0.0023 0.7212
vn -0.9666 0.0048 0.2562
vn -0.8382 0.0126 0.5453
vn -0.7515 -0.0036 -0.6597
vn -0.7517 -0.0036 -0.6595
vn 0.9975 -0.0706 -0.0019
vn 0.9975 -0.0663 -0.0244
vn 0.7489 -0.0071 0.6627
vn 0.7356 -0.0078 0.6774
vn 0.7492 -0.0071 0.6623
vn -0.7228 0.0147 -0.6909
vn -0.7164 0.0142 -0.6975
vn -0.7230 0.0147 -0.6907
vn 0.0537 0.9986 0.0031
vn 0.0547 0.9984 -0.0116
vn 0.0496 0.9965 0.0671
vn 0.6671 -0.0070 -0.7449
vn 0.7073 -0.0048 -0.7069
vn 0.7086 -0.0047 -0.7056
vn -0.7433 0.0078 0.6689
vn -0.7349 0.0070 0.6781
vn -0.7346 0.0070 0.6784
vn 0.9799 0.0476 -0.1936
vn 0.9826 0.0480 -0.1795
vn 0.9827 0.0480 -0.1789
vn -0.7397 -0.0092 -0.6729
vn -0.7421 -0.0086 -0.6702
vn -0.7392 -0.0093 -0.6735
vn -0.7560 0.0240 -0.6541
vn -0.7587 0.0247 -0.6509
vn -0.7556 0.0239 -0.6546
vn 0.7079 0.0062 0.7062
vn 0.7110 0.0056 0.7032
vn 0.7115 0.0055 0.7027
vn -0.0306 -0.9995 -0.0013
vn -0.0206 -0.9997 0.0155
vn -0.0323 -0.9995 -0.0040
vn 0.0248 0.9997 0.0035
vn 0.0136 0.9998 -0.0125
vn 0.0118 0.9998 -0.0150
vn 0.7031 -0.0256 0.7107
vn 0.7078 -0.0265 0.7059
vn 0.7084 -0.0266 0.7053
vn -0.0197 -0.9974 0.0694
vn -0.0083 -0.9947 0.1024
vn -0.0227 -0.9979 0.0607
vn 0.0103 -0.9997 0.0218
vn -0.0148 -0.9998 -0.0140
vn 0.0142 -0.9995 0.0274
vn -0.0033 -1.0000 -0.0033
vn -0.0112 -0.9998 -0.0141
vn -0.0022 -1.0000 -0.0018
vn 0.0575 -0.9969 0.0540
vn 0.0593 -0.9967 0.0563
vn 0.0574 -0.9969 0.0539
vn -0.0129 -0.9998 -0.0121
vn -0.0088 -0.9999 -0.0053
vn -0.0141 -0.9998 -0.0140
vn -0.0362 -0.9990 -0.0252
vn 0.0039 -0.9996 0.0284
vn -0.0388 -0.9988 -0.0288
vn -0.0034 -1.0000 -0.0026
vn 0.0905 0.9923 0.0846
vn 0.0059 1.0000 -0.0062
vn 0.0051 1.0000 -0.0070
vn -0.6942 0.0503 -0.7180
vn -0.6931 0.0574 -0.7185
vn -0.6943 0.0495 -0.7180
vn 0.8664 -0.0073 -0.4992
vn 0.7373 -0.0413 -0.6743
vn 0.7259 -0.0438 -0.6864
vn 0.4118 -0.8036 0.4297
vn 0.3993 -0.8172 0.4156
vn 0.4121 -0.8033 0.4300
vn 0.6943 0.0251 0.7192
vn 0.6940 0.0208 0.7197
vn 0.6939 0.0204 0.7197
vn -0.7340 0.0069 0.6791
vn -0.6924 0.0155 0.7214
vn -0.7367 0.0064 0.6762
vn 0.0058 1.0000 -0.0062
vn 0.4162 0.8316 -0.3677
vn 0.4028 0.8280 -0.3901
vn 0.4000 0.8272 -0.3947
vn 0.9318 -0.3557 -0.0724
vn 0.8982 -0.3916 -0.1997
vn 0.8974 -0.3922 -0.2021
vn -0.7573 0.0484 -0.6512
vn -0.7748 0.0653 -0.6288
vn -0.7564 0.0476 -0.6523
vn -0.5890 0.4426 0.6761
vn -0.7024 0.4455 0.5551
vn -0.7036 0.4455 0.5536
vn 0.7010 -0.0098 0.7131
vn 0.7069 -0.0146 0.7072
vn 0.7071 -0.0148 0.7070
vn -0.3928 -0.8394 0.3755
vn -0.3889 -0.8385 0.3817
vn -0.3941 -0.8398 0.3735
vn -0.0051 0.9982 0.0592
vn -0.7462 0.0116 -0.6656
vn -0.1676 0.9657 -0.1981
vn -0.6990 0.0148 0.7150
vn 0.9918 -0.0204 -0.1260
vn 0.0512 0.9987 0.0017
vn -0.8052 -0.0139 0.5929
vn 0.9585 -0.0196 -0.2845
vn -0.9372 0.0091 0.3487
vn 0.2009 0.9786 -0.0438
vn -0.7609 0.0171 -0.6486
vn 0.6963 -0.0151 0.7176
vn -0.8186 -0.0573 0.5715
vn 0.6959 -0.0127 0.7180
vn 0.0428 0.9987 0.0275
vn 0.9975 -0.0082 -0.0702
vn -0.6130 0.0037 0.7901
vn -0.7470 0.0162 -0.6647
vn 0.2300 0.9463 0.2272
vn -0.7779 0.0165 -0.6282
vn 0.9852 -0.0103 -0.1709
vn -0.6618 0.0021 0.7497
vn 0.7009 -0.0158 0.7131
vn 0.6887 -0.0157 0.7248
vn 0.9837 -0.0034 -0.1795
vn 0.9942 -0.0226 0.1049
vn -0.7529 0.0779 -0.6535
vn -0.8355 0.0127 0.5494
vn 0.7352 -0.0078 0.6778
vn -0.7162 0.0142 -0.6977
vn 0.0590 0.9949 -0.0823
vn 0.6656 -0.0071 -0.7463
vn -0.7436 0.0078 0.6685
vn 0.9798 0.0476 -0.1941
vn -0.7426 -0.0084 -0.6697
vn -0.7591 0.0248 -0.6505
vn 0.7075 0.0063 0.7067
vn -0.0181 -0.9996 0.0197
vn 0.0259 0.9997 0.0051
vn 0.7025 -0.0255 0.7112
vn -0.0065 -0.9942 0.1076
vn -0.0175 -0.9997 -0.0177
vn -0.0118 -0.9998 -0.0149
vn 0.0595 -0.9966 0.0566
vn -0.0082 -1.0000 -0.0042
vn 0.0103 -0.9993 0.0369
vn 0.0915 0.9921 0.0856
vn -0.6930 0.0582 -0.7186
vn 0.8830 -0.0019 -0.4693
vn 0.3990 -0.8175 0.4153
vn 0.6944 0.0255 0.7192
vn -0.6856 0.0169 0.7278
vn 0.8830 -0.0018 -0.4693
vn -0.6855 0.0169 0.7278
vn 0.4209 0.8327 -0.3598
vn 0.9323 -0.3549 -0.0699
vn -0.7757 0.0663 -0.6276
vn -0.5876 0.4425 0.6774
vn 0.7007 -0.0096 0.7134
vn -0.3882 -0.8383 0.3828
usemtl wood.002
s 1
f 1/1/1 3/2/2 4/3/3
f 1/4/4 6/5/5 5/6/6
f 7/7/7 9/8/8 10/9/9
f 11/10/10 1/11/11 5/12/12
f 4/13/13 12/14/14 6/15/15
f 13/16/16 15/17/17 16/18/18
f 13/19/19 18/20/20 14/21/21
f 20/22/22 22/23/23 19/24/24
f 23/25/25 25/26/26 26/27/27
f 21/28/28 25/29/29 24/30/30
f 26/31/31 20/32/32 19/33/33
f 21/34/34 23/35/35 22/36/36
f 27/37/37 29/38/38 30/39/39
f 2/40/40 12/41/41 3/42/42
f 31/43/43 9/44/44 8/45/45
f 33/46/46 35/47/47 36/48/48
f 37/49/49 36/50/50 35/51/51
f 39/52/52 41/53/53 42/54/54
f 39/55/55 43/56/56 44/57/57
f 42/58/58 45/59/59 43/60/60
f 46/61/61 36/50/62 38/62/63
f 44/63/64 45/64/65 47/65/66
f 46/66/67 34/67/68 33/68/69
f 35/51/70 48/69/71 37/49/72
f 40/70/73 45/64/74 41/71/75
f 49/72/76 16/73/77 15/74/78
f 7/75/79 31/43/80 8/45/81
f 52/76/82 53/77/83 54/78/84
f 51/79/85 10/80/86 52/81/87
f 32/82/88 55/83/89 53/77/90
f 51/84/91 55/83/92 31/43/80
f 56/85/93 52/81/87 54/86/94
f 9/44/95 52/76/82 10/87/96
f 57/88/97 59/89/98 60/90/99
f 61/91/100 63/92/101 64/93/102
f 58/94/103 62/95/104 59/96/105
f 63/97/106 57/98/107 64/99/108
f 59/100/109 61/101/110 60/102/111
f 65/103/112 67/104/113 68/105/114
f 28/106/115 67/107/116 66/108/117
f 17/109/118 16/73/119 50/110/120
f 68/105/121 29/38/122 65/103/123
f 49/111/124 17/112/125 50/113/126
f 68/114/127 27/115/128 30/116/129
f 15/74/130 18/20/131 49/72/132
f 26/117/133 22/118/134 23/119/135
f 28/120/136 65/121/137 29/122/138
f 56/123/139 53/124/140 55/125/141
f 12/126/142 5/127/143 6/128/144
f 46/129/145 37/130/146 48/131/147
f 47/132/148 39/133/149 44/134/150
f 57/135/151 61/136/151 64/137/151
f 69/138/152 71/139/153 72/140/154
f 69/141/155 73/142/156 74/143/157
f 72/144/158 75/145/159 73/146/160
f 74/147/161 75/148/162 76/149/163
f 70/150/164 75/148/165 71/151/166
f 76/152/167 69/153/168 74/154/169
f 77/155/152 79/156/170 80/157/154
f 77/158/155 81/159/156 82/160/157
f 80/161/158 83/162/159 81/163/160
f 82/164/161 83/165/162 84/166/163
f 78/167/164 83/165/165 79/168/166
f 84/169/167 77/170/168 82/171/169
f 85/172/171 87/173/172 88/174/173
f 89/175/174 88/176/175 87/177/176
f 91/178/177 88/176/178 90/179/179
f 91/180/180 86/181/181 85/182/182
f 87/177/183 92/183/184 89/175/185
f 91/184/186 89/185/187 92/186/188
f 1/1/1 2/187/189 3/2/2
f 1/4/4 4/188/190 6/5/5
f 7/7/7 8/189/191 9/8/8
f 11/10/10 2/190/192 1/11/11
f 4/13/13 3/191/193 12/14/14
f 13/16/16 14/192/194 15/17/17
f 13/19/19 17/193/195 18/20/20
f 20/22/22 21/194/196 22/23/23
f 23/25/25 24/195/197 25/26/26
f 21/28/28 20/196/198 25/29/29
f 26/31/31 25/197/199 20/32/32
f 21/34/34 24/198/200 23/35/35
f 27/37/37 28/199/201 29/38/38
f 2/40/40 11/200/202 12/41/41
f 31/43/43 32/82/88 9/44/44
f 33/46/46 34/201/203 35/47/47
f 37/49/49 38/62/204 36/50/50
f 39/52/52 40/202/205 41/53/53
f 39/55/55 42/203/206 43/56/56
f 42/58/58 41/204/207 45/59/59
f 46/61/61 33/205/208 36/50/62
f 44/63/64 43/206/209 45/64/65
f 46/66/67 48/69/210 34/67/68
f 35/51/70 34/67/211 48/69/71
f 40/70/73 47/65/212 45/64/74
f 49/72/76 50/110/213 16/73/77
f 7/75/79 51/84/91 31/43/80
f 52/76/82 32/82/214 53/77/83
f 51/79/85 7/207/215 10/80/86
f 32/82/88 31/43/43 55/83/89
f 51/84/91 56/208/216 55/83/92
f 56/85/93 51/79/85 52/81/87
f 9/44/95 32/82/214 52/76/82
f 57/88/97 58/209/217 59/89/98
f 61/91/100 62/210/218 63/92/101
f 58/94/103 63/211/219 62/95/104
f 63/97/106 58/212/220 57/98/107
f 59/100/109 62/213/221 61/101/110
f 65/103/112 66/214/222 67/104/113
f 28/106/115 27/215/223 67/107/116
f 17/109/118 13/216/224 16/73/119
f 68/105/121 30/39/225 29/38/122
f 49/111/124 18/217/226 17/112/125
f 68/114/127 67/218/227 27/115/128
f 15/74/130 14/21/228 18/20/131
f 26/117/133 19/219/229 22/118/134
f 28/120/136 66/220/230 65/121/137
f 56/123/139 54/221/231 53/124/140
f 12/126/142 11/222/232 5/127/143
f 46/129/145 38/223/233 37/130/146
f 47/132/148 40/224/234 39/133/149
f 57/135/151 60/225/151 61/136/151
f 69/138/152 70/226/235 71/139/153
f 69/141/155 72/227/236 73/142/156
f 72/144/158 71/228/237 75/145/159
f 74/147/161 73/229/238 75/148/162
f 70/150/164 76/149/239 75/148/165
f 76/152/167 70/230/240 69/153/168
f 77/155/152 78/231/235 79/156/170
f 77/158/155 80/232/236 81/159/156
f 80/161/158 79/233/241 83/162/159
f 82/164/161 81/234/238 83/165/162
f 78/167/164 84/166/239 83/165/165
f 84/169/167 78/235/242 77/170/168
f 85/172/171 86/236/243 87/173/172
f 89/175/174 90/179/244 88/176/175
f 91/178/177 85/237/245 88/176/178
f 91/180/180 92/183/246 86/181/181
f 87/177/183 86/181/247 92/183/184
f 91/184/186 90/238/248 89/185/187
